/* XPM */
static char *_9272eb400a246dcf69472f6ad34e572[] = {
/* columns rows colors chars-per-pixel */
"16 16 46 1 ",
"  c #2E527E",
". c #2F547F",
"X c #EA8C1E",
"o c #E58B21",
"O c #E68B20",
"+ c #E78B20",
"@ c #E58C21",
"# c #E68F23",
"$ c #E68F24",
"% c #E88C20",
"& c #E88F22",
"* c #E69024",
"= c #E89527",
"- c #EA9B2B",
"; c #EE9C29",
": c #EC9F2D",
"> c #EDA12E",
", c #EDA330",
"< c #EDA531",
"1 c #EEA632",
"2 c #EFA833",
"3 c #EFA934",
"4 c #2E5480",
"5 c #2E5580",
"6 c #2F5580",
"7 c #2D5884",
"8 c #2D5984",
"9 c #2F5F89",
"0 c #315982",
"q c #315A82",
"w c #315F86",
"e c #346086",
"r c #346287",
"t c #33658A",
"y c #366689",
"u c #37678A",
"i c #31658C",
"p c #33698E",
"a c #356A8E",
"s c #386B8B",
"d c #3A6F8E",
"f c #3D728E",
"g c #3B7491",
"h c #3A7492",
"j c #3B7492",
"k c None",
/* pixels */
"kkk33kkkkhkkkkkk",
"kkk33kkkkkghkkkk",
"kkkk3kk1>;kfdkkk",
"kkkk21kkkk&kakkk",
"kkkk11kkk$k+tkkk",
"kkkk,kkkkOk&wkkk",
"kkkk:k=*#kOk7kkk",
"kkkk-k#kkOXk6kkk",
"kkkkkkkkkkk6kkkk",
"kkkkkkai976kkkkk",
"kkkkdkskkkkkkkkk",
"kkkkskekkkkkkkkk",
"kkkktk0kkkkkkkkk",
"kkkkek.kkkkkkkkk",
"kkkk0k kkkkkkkkk",
"kkkk.  kkkkkkkkk"
};
