/* XPM */
static char *_43d6675d2794d008beb8cc4ad5b430d[] = {
/* columns rows colors chars-per-pixel */
"128 128 92 1 ",
"  c #2E527E",
". c #2E537E",
"X c #2F537F",
"o c #2F547F",
"O c #2F557F",
"+ c #E58B21",
"@ c #E58C22",
"# c #E68C22",
"$ c #E68D22",
"% c #E68E22",
"& c #E68E23",
"* c #E68F23",
"= c #E68F24",
"- c #E69024",
"; c #E79125",
": c #E79225",
"> c #E89326",
", c #E89527",
"< c #E89528",
"1 c #E99628",
"2 c #E99728",
"3 c #E99829",
"4 c #E9992A",
"5 c #EA9A2A",
"6 c #EA9B2B",
"7 c #EA9C2B",
"8 c #EB9D2C",
"9 c #EB9E2D",
"0 c #EC9F2D",
"q c #EC9F2E",
"w c #ECA02E",
"e c #ECA12E",
"r c #ECA12F",
"t c #ECA22F",
"y c #ECA330",
"u c #EDA330",
"i c #EDA431",
"p c #EDA531",
"a c #EEA631",
"s c #EEA632",
"d c #EEA732",
"f c #EEA733",
"g c #EEA833",
"h c #EFA833",
"j c #EFA934",
"k c #2F5680",
"l c #305781",
"z c #305881",
"x c #315982",
"c c #315A82",
"v c #325A82",
"b c #325B82",
"n c #325B83",
"m c #325C83",
"M c #325C84",
"N c #325D84",
"B c #325D85",
"V c #325E85",
"C c #335E85",
"Z c #335F85",
"A c #336085",
"S c #346085",
"D c #346186",
"F c #356286",
"G c #356287",
"H c #356388",
"J c #356488",
"K c #356588",
"L c #366588",
"P c #366589",
"I c #366689",
"U c #366789",
"Y c #37688A",
"T c #38698B",
"R c #386A8B",
"E c #386B8B",
"W c #386B8C",
"Q c #386C8C",
"! c #396D8D",
"~ c #396E8D",
"^ c #396E8E",
"/ c #3A6E8E",
"( c #3A6F8E",
") c #3A708E",
"_ c #3B718E",
"` c #3B718F",
"' c #3B728F",
"] c #3B7290",
"[ c #3B7390",
"{ c #3B7491",
"} c #3C7491",
"| c None",
/* pixels */
"||||||||||||||||||||||||||||||||||||||||||||||||||||||||||||||||||||||||||||||||||||||||||||||||||||||||||||||||||||||||||||||||",
"|||||||||||||||||||||||||||||||||||||||||||||||||||||||||||||||||||}}}}}}|||||||||||||||||||||||||||||||||||||||||||||||||||||||",
"|||||||||||||||||||||jjjjjjjjjjjjjjjjjjjj||||||||||||||||||||||||||}}}}}}}}}}}||||||||||||||||||||||||||||||||||||||||||||||||||",
"|||||||||||||||||||||jjjjjjjjjjjjjjjjjjjj||||||||||||||||||||||||||}}}}}}}}}}}}}}|||||||||||||||||||||||||||||||||||||||||||||||",
"|||||||||||||||||||||jjjjjjjjjjjjjjjjjjjj||||||||||||||||||||||||||}}}}}}}}}}}}}}}}|||||||||||||||||||||||||||||||||||||||||||||",
"|||||||||||||||||||||jjjjjjjjjjjjjjjjjjjj||||||||||||||||||||||||||}}}}}}}}}}}}}}}}}}|||||||||||||||||||||||||||||||||||||||||||",
"|||||||||||||||||||||jjjjjjjjjjjjjjjjjjjj||||||||||||||||||||||||||}}}}}}}}}}}}}}}}}}}}|||||||||||||||||||||||||||||||||||||||||",
"|||||||||||||||||||||jjjjjjjjjjjjjjjjjjjj||||||||||||||||||||||||||}}}}}}}}}}}}}}}}}}}}}||||||||||||||||||||||||||||||||||||||||",
"|||||||||||||||||||||jjjjjjj||||||jjjjjjj|||||||||||||||||||||||||||||||||}}}}}}}}}}}}}}}}||||||||||||||||||||||||||||||||||||||",
"|||||||||||||||||||||jjjjjj|||||||jjjjjjj||||||||||||||||||||||||||||||||||||}}}}}}}}}}}}}}|||||||||||||||||||||||||||||||||||||",
"|||||||||||||||||||||jjjjjj|||||||jjjjjjj|||||||||||||||||||||||||||||||||||||||}}}}}}}}}}}}||||||||||||||||||||||||||||||||||||",
"|||||||||||||||||||||jjjjjj|||||||jjjjjjj|||||||||||||||||||||||||||||||||||||||||}}}}}}}}}}}}||||||||||||||||||||||||||||||||||",
"|||||||||||||||||||||jjjjjj|||||||jjjjjjj|||||||||||||||||||||||||||||||||||||||||||}}}}}}}}}{{|||||||||||||||||||||||||||||||||",
"|||||||||||||||||||||jjjjjj|||||||jjjjjjj||||||||||||||||||||||||||||||||||||||||||||}}}}}}}{{{[||||||||||||||||||||||||||||||||",
"|||||||||||||||||||||jjjjjj|||||||jjjjjjj||||||||||||||||||||||||||||||||||||||||||||||}}}}{{{[[||||||||||||||||||||||||||||||||",
"|||||||||||||||||||||jjjjjj|||||||jjjjjjj|||||||||||||ddddddddduduutttttt|||||||||||||||}}{{[[[[[|||||||||||||||||||||||||||||||",
"|||||||||||||||||||||jjjjjj|||||||jjjjjjj||||||||||||ddddddfdyudtuwywwww0099|||||||||||||{{{[[[[``||||||||||||||||||||||||||||||",
"|||||||||||||||||||||jjjjjj|||||||jjjjjjj|||||||||||ddddddyuyduuywywwyww0999976|||||||||||{[[[[````|||||||||||||||||||||||||||||",
"|||||||||||||||||||||jjjjjj|||||||jjjjjjj||||||||||fdddduddyuuuyywywwwww99976666|||||||||||[[[`````(||||||||||||||||||||||||||||",
"|||||||||||||||||||||jjjjjj|||||||jjjjjjj|||||||||fdddddduyfuuywwywwwww99076666662||||||||||[``````(||||||||||||||||||||||||||||",
"|||||||||||||||||||||jjjjjj|||||||jjjjjjj||||||||fddffddyduuuuyuttttw09969666666221||||||||||`````(((|||||||||||||||||||||||||||",
"|||||||||||||||||||||jjjjjj|||||||jjjjjjj||||||||||||||||||||||||||||9979966662222,,|||||||||````((((|||||||||||||||||||||||||||",
"|||||||||||||||||||||jjjjjj|||||||jjjjjjj||||||||||||||||||||||||||||||||66662222<>>>|||||||||``(((((W||||||||||||||||||||||||||",
"|||||||||||||||||||||jjjjjj|||||||jjjjjjj|||||||||||||||||||||||||||||||||||6222<,>>>>|||||||||((((E((||||||||||||||||||||||||||",
"|||||||||||||||||||||jjjjjj|||||||jjjjjjj||||||||||||||||||||||||||||||||||||22<,>>>>*=||||||||((QQ(WQW|||||||||||||||||||||||||",
"|||||||||||||||||||||jjjjjj|||||||jjjjjjj||||||||||||||||||||||||||||||||||||||2>>>===**||||||||Q(((WWE|||||||||||||||||||||||||",
"|||||||||||||||||||||jjjjjj|||||||jjjjjjj|||||||||||||||||||||||||||||||||||||||>>=*=**=*|||||||(W(QWEEE||||||||||||||||||||||||",
"|||||||||||||||||||||jjjjjj|||||||jjjjjjj||||||||||||||||||||||||||||||||||||||||=>=**+#+||||||||(YQEEEE||||||||||||||||||||||||",
"|||||||||||||||||||||jjjjjj|||||||jjhhhfdfddfddydudyuywyu0tr0099976666||||||||||||***+##++|||||||WWEEYWY||||||||||||||||||||||||",
"|||||||||||||||||||||jjjjjj|||||||jjhhhffdddududyuyduyyw0t00099007666666||||||||||***+#+++||||||||EWEETYY|||||||||||||||||||||||",
"|||||||||||||||||||||jjjjjj|||||||jjhhffddddddduuddwywwwt0009907666666212<|||||||||*+*+++++|||||||EYWTYYY|||||||||||||||||||||||",
"|||||||||||||||||||||jjjjjj|||||||jjjjddddddydyuuyywyyww00099976666622112>>|||||||||+++++++|||||||EWYYYYU|||||||||||||||||||||||",
"|||||||||||||||||||||jjjjjj|||||||hhffddddduduuduywwywt0009970666666221,,>>>||||||||*+++++++|||||||EYYYUYU||||||||||||||||||||||",
"|||||||||||||||||||||jjjjjj|||||||hhfdddddduyuuyutwywwt009999766662222,,>*>>>||||||||+++++++|||||||YYYUUJJ||||||||||||||||||||||",
"|||||||||||||||||||||jjjjjj|||||||hdddddddududuyttttwtt09996766662622>,>>>====|||||||+++++++|||||||YYUUHJJ||||||||||||||||||||||",
"|||||||||||||||||||||jjjjjj|||||||fdddudu||||||||||||||||||||||||||||<>>>*=***|||||||+++++++|||||||EUYGUJU||||||||||||||||||||||",
"|||||||||||||||||||||jjjjjj|||||||dddddyd||||||||||||||||||||||||||||||>=@--*++|||||||+++++++||||||UUGUJJG||||||||||||||||||||||",
"|||||||||||||||||||||jjjjjj|||||||ddudddu|||||||||||||||||||||||||||||||@>-@=#+|||||||+++++++||||||UGUUGGG||||||||||||||||||||||",
"|||||||||||||||||||||jjjjjj|||||||ddduduu|||||||||||||||||||||||||||||||****##=|||||||+++++++|||||||JJGHGG||||||||||||||||||||||",
"|||||||||||||||||||||jjjjjj|||||||dduduud|||||||||||||||||||||||||||||||***++++|||||||+++++++|||||||JUHGGG||||||||||||||||||||||",
"|||||||||||||||||||||jjjjjh|||||||dfdyuyu||||||||||||||||||||||||||||||||=+++++|||||||+++++++|||||||HHGGGZ||||||||||||||||||||||",
"|||||||||||||||||||||jjjjhh|||||||yuydudu||||||||||||||||||||||||||||||||++=+++|||||||+++++++|||||||HGGAZZ||||||||||||||||||||||",
"|||||||||||||||||||||jjjhhj|||||||dyuudwy|||||||||||||||||||||||||||||||*++++++|||||||+++++++|||||||GGZZZZ||||||||||||||||||||||",
"|||||||||||||||||||||jjhhhf|||||||yfuuywy|||||||||||||||||||||||||||||||+++++++|||||||+++++++|||||||GAZZZZ||||||||||||||||||||||",
"|||||||||||||||||||||jjdhfd|||||||duuywyu|||||||||||||||||||||||||||||||*++++++|||||||+++++++||||||GAZZZcM||||||||||||||||||||||",
"|||||||||||||||||||||jdjddd|||||||uuutyww||||||||||||||||||||||||||||||*+++++++|||||||+++++++||||||GZZZZcc||||||||||||||||||||||",
"|||||||||||||||||||||hffddd|||||||uyttt0w||||||||||||||||||||||||||||+++++++++|||||||+++++++|||||||ZZZMmcc||||||||||||||||||||||",
"|||||||||||||||||||||hfdddd|||||||yyt0ttt|||||||666626222,>>>=>*=*+*+*++++++++|||||||+++++++|||||||ZZMcccc||||||||||||||||||||||",
"|||||||||||||||||||||dddddd|||||||wywwww0|||||||6662222<>>>>>@***++*=++++++++||||||||+++++++|||||||McZccck||||||||||||||||||||||",
"|||||||||||||||||||||dddudu|||||||yywwww0|||||||666222<<>>>*-@***+++++++++++||||||||++++++++|||||||MZccclc||||||||||||||||||||||",
"|||||||||||||||||||||dddddd|||||||uwttww9|||||||6222<<<>>*>=--**+++++++++++|||||||||+++++++|||||||bMcccll|||||||||||||||||||||||",
"|||||||||||||||||||||dddudu|||||||ww09w90|||||||6222<>>>>>**-@*+#=++++++++|||||||||++++++++|||||||bccclkk|||||||||||||||||||||||",
"|||||||||||||||||||||dduduu|||||||t000997|||||||22,,<>>>=*=**+++#+++++++||||||||||++++++++||||||||mcckckk|||||||||||||||||||||||",
"|||||||||||||||||||||dududu|||||||0009999|||||||22<,>>>=>=****+*+++++|||||||||||||++++++++|||||||mcczzkk||||||||||||||||||||||||",
"||||||||||||||||||||||||||||||||||0099707|||||||2<>>>>|||||||||||||||||||||||||||++++++++||||||||cclcoko||||||||||||||||||||||||",
"||||||||||||||||||||||||||||||||||0990766|||||||<,>>->||||||||||||||||||||||||||+++++++++|||||||ccllkkoo||||||||||||||||||||||||",
"||||||||||||||||||||||||||||||||||9977776|||||||,>>>>*||||||||||||||||||||||||++++++++++||||||||cllkkoo|||||||||||||||||||||||||",
"||||||||||||||||||||||||||||||||||9976776|||||||>>>===|||||||||||||||||||||||++++++++++||||||||cllolooo|||||||||||||||||||||||||",
"||||||||||||||||||||||||||||||||||9966666|||||||>>=***|||||||||||||||||||||+++++++++++|||||||||cllOOoX||||||||||||||||||||||||||",
"||||||||||||||||||||||||||||||||||7666666|||||||-=>=**|||||||||||||||||||++++++++++++|||||||||zzlOOOXX||||||||||||||||||||||||||",
"||||||||||||||||||||||||||||||||||66666,2|||||||>@***+*||||||||||||||+++++++++++++++|||||||||czkoooXX|||||||||||||||||||||||||||",
"|||||||||||||||||||||ttttt000906076666662|||||||-@***++++++++++++++++++++++++++++++||||||||||zokooXXX|||||||||||||||||||||||||||",
"|||||||||||||||||||||tttt0009999666666212|||||||---*+*++++++++++++++++++++++++++++||||||||||zOooooXX||||||||||||||||||||||||||||",
"|||||||||||||||||||||tt000099996666622112|||||||-@*+++++++++++++++++++++++++++++|||||||||||lzOooooXX||||||||||||||||||||||||||||",
"|||||||||||||||||||||0tt009970766666222,2|||||||**++*++++++++++++++++++++++++++|||||||||||lkooooX X|||||||||||||||||||||||||||||",
"|||||||||||||||||||||t0009900766662222<,>|||||||++*+++++++++++++++++++++++++|||||||||||||lkkoXoo. ||||||||||||||||||||||||||||||",
"|||||||||||||||||||||t009997666662622>1>>|||||||++*++++++++++++++++++++++|||||||||||||||ckkoXXXX |||||||||||||||||||||||||||||||",
"|||||||||||||||||||||||||||||||||||||||||||||||||||||||||||||||||||||||||||||||||||||||lkkooXX X||||||||||||||||||||||||||||||||",
"|||||||||||||||||||||||||||||||||||||||||||||||||||||||||||||||||||||||||||||||||||||zzokoXXXXXX||||||||||||||||||||||||||||||||",
"||||||||||||||||||||||||||||||||||||||||||||||||||||||||||||||||||||||||||||||||||||zzzzooXX  X|||||||||||||||||||||||||||||||||",
"||||||||||||||||||||||||||||||||||||||||||||||||||||||||||||||||||||||||||||||||||ckkkoooXXX X||||||||||||||||||||||||||||||||||",
"||||||||||||||||||||||||||||||||||||||||||||||||||||||||||||||||||||||||||||||||cclckkoooXXX||||||||||||||||||||||||||||||||||||",
"|||||||||||||||||||||||||||||||||||||||||||||||||||||||||||||||||||||||||||||cmcczkkkkoXXXX|||||||||||||||||||||||||||||||||||||",
"|||||||||||||||||||||||||||||||||||||||||||||||||||||||||||||||||||||||||ZZZmccczzkkooXXXX||||||||||||||||||||||||||||||||||||||",
"||||||||||||||||||||||||||||||||||[[}`[[`|||||||((W(WEEEEEYYYUUUUJGJHGAZZZMcccclzkkooXXX||||||||||||||||||||||||||||||||||||||||",
"||||||||||||||||||||||||||||||||||[[[``(_|||||||(WWWEEEEEYYYUUUGUGGGGGZZZMMcccclozoooXX|||||||||||||||||||||||||||||||||||||||||",
"||||||||||||||||||||||||||||||||||[`[```_|||||||(WWEEYWYYYYUUJJUGHHGGZZZZmcccllOkoooX|||||||||||||||||||||||||||||||||||||||||||",
"||||||||||||||||||||||||||||||||||[`````_|||||||EWEWEETYYYUUJJJHUAGAZZZcccccllolooo|||||||||||||||||||||||||||||||||||||||||||||",
"||||||||||||||||||||||||||||||||||`````((|||||||WEEYWTYYYUYUJJUGGGGZGZMmccckckko||||||||||||||||||||||||||||||||||||||||||||||||",
"||||||||||||||||||||||||||||||||||````(((|||||||EEEWYYYYYJJJJJGGGAZZMMmcccclo|||||||||||||||||||||||||||||||||||||||||||||||||||",
"||||||||||||||||||||||||||||||||||```((((|||||||EEEYYYEUUUGUUGGGGmAZZmcc||||||||||||||||||||||||||||||||||||||||||||||||||||||||",
"||||||||||||||||||||||||||||||||||``(((((|||||||YEYYYYU|||||||||||||||||||||||||||||||||||||||||||||||||||||||||||||||||||||||||",
"||||||||||||||||||||||||||||||||||``[((((|||||||EYEUYY||||||||||||||||||||||||||||||||||||||||||||||||||||||||||||||||||||||||||",
"||||||||||||||||||||||||||||||||||(`^^QQ(|||||||EYUEYY||||||||||||||||||||||||||||||||||||||||||||||||||||||||||||||||||||||||||",
"||||||||||||||||||||||||||||||||||((W(Q((|||||||YYYUUJ||||||||||||||||||||||||||||||||||||||||||||||||||||||||||||||||||||||||||",
"||||||||||||||||||||||||||||||||||((Q((QY|||||||YEJUJU||||||||||||||||||||||||||||||||||||||||||||||||||||||||||||||||||||||||||",
"||||||||||||||||||||||||||||||||||(((W(W(|||||||EJYUJJ||||||||||||||||||||||||||||||||||||||||||||||||||||||||||||||||||||||||||",
"||||||||||||||||||||||||||||||||||((W(WWE|||||||YJJJJJ||||||||||||||||||||||||||||||||||||||||||||||||||||||||||||||||||||||||||",
"||||||||||||||||||||||||||||||||||(((WWEE|||||||UJJJJJ||||||||||||||||||||||||||||||||||||||||||||||||||||||||||||||||||||||||||",
"||||||||||||||||||||||||||||||||||WWEWEWE|||||||JJJJJG||||||||||||||||||||||||||||||||||||||||||||||||||||||||||||||||||||||||||",
"||||||||||||||||||||||||||||||||||(EWEEYE|||||||GUUGGG||||||||||||||||||||||||||||||||||||||||||||||||||||||||||||||||||||||||||",
"||||||||||||||||||||||||||||||||||WWEEEWE|||||||UHGGGA||||||||||||||||||||||||||||||||||||||||||||||||||||||||||||||||||||||||||",
"||||||||||||||||||||||||||||||||||WEEEYTY|||||||UGGGGA||||||||||||||||||||||||||||||||||||||||||||||||||||||||||||||||||||||||||",
"||||||||||||||||||||||||||||||||||EEEWTYY|||||||GGGAZA||||||||||||||||||||||||||||||||||||||||||||||||||||||||||||||||||||||||||",
"||||||||||||||||||||||||||||||||||EEEYYYY|||||||HGAZZZ||||||||||||||||||||||||||||||||||||||||||||||||||||||||||||||||||||||||||",
"||||||||||||||||||||||||||||||||||EEEYYYU|||||||HAZZZc||||||||||||||||||||||||||||||||||||||||||||||||||||||||||||||||||||||||||",
"||||||||||||||||||||||||||||||||||EWYYYUH|||||||GZZZcc||||||||||||||||||||||||||||||||||||||||||||||||||||||||||||||||||||||||||",
"||||||||||||||||||||||||||||||||||EUYYUUY|||||||ZZZZMc||||||||||||||||||||||||||||||||||||||||||||||||||||||||||||||||||||||||||",
"||||||||||||||||||||||||||||||||||YYYUHUU|||||||ZZMmcc||||||||||||||||||||||||||||||||||||||||||||||||||||||||||||||||||||||||||",
"||||||||||||||||||||||||||||||||||YUUUUHJ|||||||ZcMccc||||||||||||||||||||||||||||||||||||||||||||||||||||||||||||||||||||||||||",
"||||||||||||||||||||||||||||||||||EUYUJJG|||||||Zmcccc||||||||||||||||||||||||||||||||||||||||||||||||||||||||||||||||||||||||||",
"||||||||||||||||||||||||||||||||||YUJJJJU|||||||ccccll||||||||||||||||||||||||||||||||||||||||||||||||||||||||||||||||||||||||||",
"||||||||||||||||||||||||||||||||||UJJJJGG|||||||cccklk||||||||||||||||||||||||||||||||||||||||||||||||||||||||||||||||||||||||||",
"||||||||||||||||||||||||||||||||||JUJJGGG|||||||ccclkk||||||||||||||||||||||||||||||||||||||||||||||||||||||||||||||||||||||||||",
"||||||||||||||||||||||||||||||||||UUGUGGG|||||||clllko||||||||||||||||||||||||||||||||||||||||||||||||||||||||||||||||||||||||||",
"||||||||||||||||||||||||||||||||||JGHAGAZ|||||||lllOoo||||||||||||||||||||||||||||||||||||||||||||||||||||||||||||||||||||||||||",
"||||||||||||||||||||||||||||||||||GGHGGZZ|||||||loOOoX||||||||||||||||||||||||||||||||||||||||||||||||||||||||||||||||||||||||||",
"||||||||||||||||||||||||||||||||||JGGAZZZ|||||||klOOXX||||||||||||||||||||||||||||||||||||||||||||||||||||||||||||||||||||||||||",
"||||||||||||||||||||||||||||||||||HGZZZZZ|||||||koXXXX||||||||||||||||||||||||||||||||||||||||||||||||||||||||||||||||||||||||||",
"||||||||||||||||||||||||||||||||||GGZZZZc|||||||ooXX X||||||||||||||||||||||||||||||||||||||||||||||||||||||||||||||||||||||||||",
"||||||||||||||||||||||||||||||||||ZZZZmmc|||||||oXXX  ||||||||||||||||||||||||||||||||||||||||||||||||||||||||||||||||||||||||||",
"||||||||||||||||||||||||||||||||||ZZZMmmc|||||||ooXX  ||||||||||||||||||||||||||||||||||||||||||||||||||||||||||||||||||||||||||",
"||||||||||||||||||||||||||||||||||MZMcccc|||||||X   XX||||||||||||||||||||||||||||||||||||||||||||||||||||||||||||||||||||||||||",
"||||||||||||||||||||||||||||||||||AZZcccl|||||||    XX||||||||||||||||||||||||||||||||||||||||||||||||||||||||||||||||||||||||||",
"||||||||||||||||||||||||||||||||||Zmcclcl|||||||    X ||||||||||||||||||||||||||||||||||||||||||||||||||||||||||||||||||||||||||",
"||||||||||||||||||||||||||||||||||cccclll|||||||      ||||||||||||||||||||||||||||||||||||||||||||||||||||||||||||||||||||||||||",
"||||||||||||||||||||||||||||||||||mczzzOO|||||||      ||||||||||||||||||||||||||||||||||||||||||||||||||||||||||||||||||||||||||",
"||||||||||||||||||||||||||||||||||cczzzOO|||||||     X||||||||||||||||||||||||||||||||||||||||||||||||||||||||||||||||||||||||||",
"||||||||||||||||||||||||||||||||||zzzkooO|||||||    XX||||||||||||||||||||||||||||||||||||||||||||||||||||||||||||||||||||||||||",
"||||||||||||||||||||||||||||||||||zzkkooX|||||||    XX||||||||||||||||||||||||||||||||||||||||||||||||||||||||||||||||||||||||||",
"||||||||||||||||||||||||||||||||||ckkoXXX             ||||||||||||||||||||||||||||||||||||||||||||||||||||||||||||||||||||||||||",
"||||||||||||||||||||||||||||||||||okooXX              ||||||||||||||||||||||||||||||||||||||||||||||||||||||||||||||||||||||||||",
"||||||||||||||||||||||||||||||||||koooXX            XX||||||||||||||||||||||||||||||||||||||||||||||||||||||||||||||||||||||||||",
"||||||||||||||||||||||||||||||||||ooooXX            XX||||||||||||||||||||||||||||||||||||||||||||||||||||||||||||||||||||||||||",
"||||||||||||||||||||||||||||||||||oXX XX    X     XXX ||||||||||||||||||||||||||||||||||||||||||||||||||||||||||||||||||||||||||",
"||||||||||||||||||||||||||||||||||XX   X    XX     X  ||||||||||||||||||||||||||||||||||||||||||||||||||||||||||||||||||||||||||",
"||||||||||||||||||||||||||||||||||XX  XXXX  XXXX  XXXX||||||||||||||||||||||||||||||||||||||||||||||||||||||||||||||||||||||||||",
"||||||||||||||||||||||||||||||||||||||||||||||||||||||||||||||||||||||||||||||||||||||||||||||||||||||||||||||||||||||||||||||||"
};
