/* XPM */
static char *_73788ca471940efaf570d1890c97c65[] = {
/* columns rows colors chars-per-pixel */
"32 32 65 1 ",
"  c #2E527E",
". c #2F547F",
"X c #E58B21",
"o c #E58C21",
"O c #E58C22",
"+ c #E68C22",
"@ c #E68E23",
"# c #E68F23",
"$ c #E68F24",
"% c #E79125",
"& c #E79225",
"* c #E79226",
"= c #E89527",
"- c #E99628",
"; c #E99829",
": c #E99929",
"> c #E9992A",
", c #EA9A2A",
"< c #EA9B2B",
"1 c #EA9C2B",
"2 c #EB9D2C",
"3 c #EB9E2C",
"4 c #EB9E2D",
"5 c #ECA02E",
"6 c #ECA12F",
"7 c #ECA22F",
"8 c #EDA330",
"9 c #EDA430",
"0 c #EDA431",
"q c #EDA531",
"w c #EEA631",
"e c #EEA732",
"r c #EFA833",
"t c #EFA934",
"y c #2F5680",
"u c #305680",
"i c #305780",
"p c #305781",
"a c #315982",
"s c #315A82",
"d c #325B83",
"f c #325D84",
"g c #335D84",
"h c #335E84",
"j c #335F85",
"k c #336086",
"l c #346186",
"z c #346286",
"x c #346287",
"c c #356287",
"v c #356488",
"b c #356588",
"n c #366789",
"m c #37678A",
"M c #37698A",
"N c #37698B",
"B c #38698B",
"V c #386B8C",
"C c #396D8D",
"Z c #3A6F8E",
"A c #3B718F",
"S c #3B7290",
"D c #3B7491",
"F c #3C7491",
"G c None",
/* pixels */
"GGGGGtttttGGGGGGGFFGGGGGGGGGGGGG",
"GGGGGtttttGGGGGGGFFFFGGGGGGGGGGG",
"GGGGGttGttGGGGGGGGGGFFFGGGGGGGGG",
"GGGGGttGGtGGGGGGGGGGGFFDGGGGGGGG",
"GGGGGttGGtGGGeee662<GGGSAGGGGGGG",
"GGGGGttGGtGGGGGGGG<<=GGAZGGGGGGG",
"GGGGGttGGtGGGGGGGGGG%@GGZNGGGGGG",
"GGGGGttGGree8652<<GGG@XGVNGGGGGG",
"GGGGGttGGee86622<=%GGXXGGnGGGGGG",
"GGGGGttGGeGGGGGGGG@XGXXGGnlGGGGG",
"GGGGGtrGGeGGGGGGGG@XGGXGGlgGGGGG",
"GGGGGreGG6GGGGGGG@XXGXXGGgdGGGGG",
"GGGGGeeGG6GG<=%@XXXGGXXGGaGGGGGG",
"GGGGGGGGG2GG=%GGGGGGXXGGaaGGGGGG",
"GGGGGGGGG<GG%$GGGGGXXXGGi.GGGGGG",
"GGGGG662<<GG@XXXXXXXXGGy.GGGGGGG",
"GGGGG622<-GG@XXXXXXGGGy.GGGGGGGG",
"GGGGGGGGGGGGGGGGGGGGG..GGGGGGGGG",
"GGGGGGGGGGGGGGGGGxgaa.GGGGGGGGGG",
"GGGGGGGGGAGGVBnnlgayGGGGGGGGGGGG",
"GGGGGGGGGZGGNnGGGGGGGGGGGGGGGGGG",
"GGGGGGGGGZGGnnGGGGGGGGGGGGGGGGGG",
"GGGGGGGGGVGGllGGGGGGGGGGGGGGGGGG",
"GGGGGGGGGBGGxxGGGGGGGGGGGGGGGGGG",
"GGGGGGGGGnGGgaGGGGGGGGGGGGGGGGGG",
"GGGGGGGGGnGGaaGGGGGGGGGGGGGGGGGG",
"GGGGGGGGGlGGy.GGGGGGGGGGGGGGGGGG",
"GGGGGGGGGgGG. GGGGGGGGGGGGGGGGGG",
"GGGGGGGGGaGG  GGGGGGGGGGGGGGGGGG",
"GGGGGGGGGaGG  GGGGGGGGGGGGGGGGGG",
"GGGGGGGGG.    GGGGGGGGGGGGGGGGGG",
"GGGGGGGGG    GGGGGGGGGGGGGGGGGGG"
};
